# xmcd CD database file
#
# Track frame offsets:
#	150
#	14166
#	25949
#	39588
#	55453
#	73019
#	87143
#	101447
#	113999
#	126860
#	143369
#	155851
#	169017
#	184019
#	196248
#	209536
#	222476
#	234884
#	249626
#	264451
#	276993
#	290534
#	304595
#	318434
#
# Disc length: 4428 seconds
#
# Revision: 2
# Processed by: cddbd v1.5.2PL0 Copyright (c) Steve Scherf et al.
# Submitted via: CDex 1.51
#
DISCID=67114a18
DTITLE=Various Artist - Original Dixieland Jazz Band - Vol.2  {1917-1923}
DYEAR=1995
DGENRE=Jazz
TTITLE0=Livery Stable Blues   [1917]
TTITLE1=Dixie Jazz Band One-Step   [1917]
TTITLE2=The Darktown Strutter's Ball   [1917]
TTITLE3=Indiana   [1917]
TTITLE4=Barnyard Blues   [1917]
TTITLE5=Ostrich Walk   [1917]
TTITLE6=Tiger Rag   [1917]
TTITLE7=At The Jass Band Ball   [1917]
TTITLE8=Look At 'Em Doing It Now   [1917]
TTITLE9=Oriental Jazz   [1917]
TTITLE10=Reisenweber Rag   [1917]
TTITLE11=Skeleton Jangle   [1918]
TTITLE12=Bluin' The Blues   [1918]
TTITLE13=Fidgety Feet   [1918]
TTITLE14=Sensation Rag   [1918]
TTITLE15=Mourin' Blues   [1918]
TTITLE16=Clarinet Marmelade Blues   [1918]
TTITLE17=Lazzy Daddy   [1918]
TTITLE18=Margie   [1920]
TTITLE19=Palesteena   [1920]
TTITLE20=Some Of These Days   [1922]
TTITLE21=Toddlin' Blues   [1922]
TTITLE22=Tiger Rag   [1923]
TTITLE23=Barnyard Blues   [1923]
EXTD=YEAR: 1995
EXTT0=
EXTT1=
EXTT2=
EXTT3=
EXTT4=
EXTT5=
EXTT6=
EXTT7=
EXTT8=
EXTT9=
EXTT10=
EXTT11=
EXTT12=
EXTT13=
EXTT14=
EXTT15=
EXTT16=
EXTT17=
EXTT18=
EXTT19=
EXTT20=
EXTT21=
EXTT22=
EXTT23=
PLAYORDER=
